# xmcd CD database file
#
# Track frame offsets:
#	150
#	32857
#	51103
#	70876
#	82708
#	98388
#	114417
#	136374
#	147181
#	172318
#	195249
#	223936
#	247600
#	268811
#	290455
#
# Disc length: 4060 seconds
#
# Revision: 0
# Processed by: cddbd v1.4PL0 Copyright (c) Steve Scherf et al.
# Submitted via: CDex 1.50beta8
#
DISCID=d30fda0f
DTITLE=Various Artist - Woman in Jazz
DYEAR=2003
DGENRE=Jazz
TTITLE0=Ella Fitzgerald/It don't mean a thing
TTITLE1=Carmen McRae/All the thing you are
TTITLE2=Carmen Mc Rare/Body and soul
TTITLE3=Carmen Mc Rare/Blue Moon
TTITLE4=Sarah Vaughan/Somewhere over the rainbow
TTITLE5=Nancy Wilson/Softly as in a morning sunrise
TTITLE6=Nancy Wilson/Misty
TTITLE7=Nancy Wilson/On Green Dolphin Street
TTITLE8=Diana Krall/Body and soul
TTITLE9=Diana Krall/Cry me a river
TTITLE10=Dee Dee Bridgewater/Cherokee
TTITLE11=Dee Dee Bridgewater/Nica's dream
TTITLE12=Joni Mitchell/Summertime
TTITLE13=Cassandra Wilson/Days of Wine and Roses
TTITLE14=Carmen Mc Rare/You are the sunshine of my life
EXTD=YEAR: 2003
EXTT0=
EXTT1=
EXTT2=
EXTT3=
EXTT4=
EXTT5=
EXTT6=
EXTT7=
EXTT8=
EXTT9=
EXTT10=
EXTT11=
EXTT12=
EXTT13=
EXTT14=
PLAYORDER=
